HIERARCHY
ROOT RootJoint
{
    OFFSET   0.000000   0.000000   0.000000
    CHANNELS 6 Xposition Yposition Zposition Xrotation Yrotation Zrotation
    JOINT pelvis_lowerback
    {
        OFFSET   0.000000   0.093605   0.000000
        CHANNELS 3 Xrotation Yrotation Zrotation
        JOINT lowerback_torso
        {
            OFFSET   0.000000   0.100000   0.000000
            CHANNELS 3 Xrotation Yrotation Zrotation
            JOINT torso_head
            {
                OFFSET   0.000000   0.282350   0.000000
                CHANNELS 3 Xrotation Yrotation Zrotation
                End Site
                {
                    OFFSET   0.000000   0.192650   0.000000
                }
            }
            JOINT rTorso_Clavicle
            {
                OFFSET  -0.001000   0.157500   0.000000
                CHANNELS 3 Xrotation Yrotation Zrotation
                JOINT rShoulder
                {
                    OFFSET  -0.117647   0.000000   0.000000
                    CHANNELS 3 Xrotation Yrotation Zrotation
                    JOINT rElbow
                    {
                        OFFSET  -0.245000   0.000000   0.000000
                        CHANNELS 3 Xrotation Yrotation Zrotation
                        JOINT rWrist
                        {
                            OFFSET  -0.240000   0.000000   0.000000
                            CHANNELS 3 Xrotation Yrotation Zrotation
                            End Site
                            {
                                OFFSET  -0.116353  -0.002500   0.000000
                            }
                        }
                    }
                }
            }
            JOINT lTorso_Clavicle
            {
                OFFSET   0.001000   0.157500   0.000000
                CHANNELS 3 Xrotation Yrotation Zrotation
                JOINT lShoulder
                {
                    OFFSET   0.117647   0.000000   0.000000
                    CHANNELS 3 Xrotation Yrotation Zrotation
                    JOINT lElbow
                    {
                        OFFSET   0.245000   0.000000   0.000000
                        CHANNELS 3 Xrotation Yrotation Zrotation
                        JOINT lWrist
                        {
                            OFFSET   0.240000   0.000000   0.000000
                            CHANNELS 3 Xrotation Yrotation Zrotation
                            End Site
                            {
                                OFFSET   0.116353  -0.002500   0.000000
                            }
                        }
                    }
                }
            }
        }
    }
    JOINT rHip
    {
        OFFSET  -0.100000  -0.051395   0.000000
        CHANNELS 3 Xrotation Yrotation Zrotation
        JOINT rKnee
        {
            OFFSET   0.000000  -0.410000   0.000000
            CHANNELS 3 Xrotation Yrotation Zrotation
            JOINT rAnkle
            {
                OFFSET   0.000000  -0.390000   0.000000
                CHANNELS 3 Xrotation Yrotation Zrotation
                JOINT rToeJoint
                {
                    OFFSET   0.000000  -0.050000   0.130000
                    CHANNELS 3 Xrotation Yrotation Zrotation
                    End Site
                    {
                        OFFSET  -0.010000   0.002000   0.060000
                    }
                }
            }
        }
    }
    JOINT lHip
    {
        OFFSET   0.100000  -0.051395   0.000000
        CHANNELS 3 Xrotation Yrotation Zrotation
        JOINT lKnee
        {
            OFFSET   0.000000  -0.410000   0.000000
            CHANNELS 3 Xrotation Yrotation Zrotation
            JOINT lAnkle
            {
                OFFSET   0.000000  -0.390000   0.000000
                CHANNELS 3 Xrotation Yrotation Zrotation
                JOINT lToeJoint
                {
                    OFFSET   0.000000  -0.050000   0.130000
                    CHANNELS 3 Xrotation Yrotation Zrotation
                    End Site
                    {
                        OFFSET   0.010000   0.002000   0.060000
                    }
                }
            }
        }
    }
}
MOTION
Frames: 10
Frame Time:   0.008333
 -2.376719   0.925631   3.975860   0.000000   0.000000   0.000000   0.000000   0.000000   0.000000   0.000000   0.000000   0.000000   0.000000   0.000000   0.000000   0.000000   0.000000   0.000000   0.000000   0.000000   0.000000   0.000000   0.000000   0.000000   0.000000   0.000000   0.000000   0.000000   0.000000   0.000000   0.000000   0.000000   0.000000   0.000000   0.000000   0.000000   0.000000   0.000000   0.000000   0.000000   0.000000   0.000000   0.000000   0.000000   0.000000   0.000000   0.000000   0.000000   0.000000   0.000000   0.000000   0.000000   0.000000   0.000000   0.000000   0.000000   0.000000   0.000000   0.000000   0.000000   0.000000   0.000000   0.000000
 -2.375889   0.925800   3.972518   0.924215   0.604273   0.252817  -0.808178  -0.132561  -0.105904   0.681271  -0.338569   0.038389  -0.852024   0.455911  -0.189295   0.363720  -0.664391   0.168327  -0.274332  -0.481994   1.019471   0.036325   2.996463  -0.023997  -0.010349  -0.871055  -1.689366   0.142516  -0.326132  -0.632369   0.507964   0.617608  -1.696079   0.046266  -2.447681   0.031909   0.101688   0.951798   2.575813  -2.526366  -0.127315  -0.332153   3.198784   0.002021   0.012913  -2.839500  -0.128837   0.419131   0.481003  -0.001558   0.001440  -2.388349  -0.044117  -0.440342   3.339259   0.005403   0.015788  -3.362900   0.069310   0.133914   0.536703   0.000109   0.002916
 -2.374972   0.925960   3.968288   1.682612   1.430681   0.545092  -1.326713  -0.378976  -0.192854   1.546889  -0.824595   0.030590  -1.626067   0.907920  -0.335167   0.717744  -1.299869   0.770711  -0.525120  -0.900146   2.310882   0.084205   5.876053  -0.050545   0.007366  -0.988351  -2.987310   0.280476  -0.834631  -1.920972   0.996331   1.010399  -3.826277   0.107354  -4.836478   0.063726   0.241121   1.200781   4.496636  -5.177591  -0.224963  -0.703227   6.458870   0.004099   0.029590  -5.486621  -0.266782   0.799910   0.851641  -0.002472   0.002990  -4.651148  -0.043485  -0.993759   6.913897   0.013536   0.036061  -6.510426   0.128235   0.256404   0.894516   0.000322   0.004984
 -2.374194   0.925795   3.963565   2.374469   2.294586   0.832236  -1.679868  -0.690549  -0.284609   2.480087  -1.377628  -0.004071  -2.323216   1.333788  -0.445653   1.058460  -1.835547   1.661407  -0.749949  -1.252846   3.758525   0.131044   8.583441  -0.074079   0.036754  -0.883034  -3.775537   0.388781  -1.473593  -3.576865   1.457789   1.234431  -6.156321   0.167954  -7.112889   0.091284   0.395502   1.101300   5.675584  -7.943641  -0.296291  -1.046517   9.503180   0.005544   0.042436  -7.954482  -0.410063   1.149508   1.195389  -0.003203   0.004218  -6.748862  -0.006671  -1.567207  10.499443   0.022403   0.052706  -9.447486   0.178236   0.373781   1.218552   0.000496   0.006477
 -2.373605   0.925094   3.958632   3.019369   3.115171   1.104833  -1.909136  -1.041995  -0.393912   3.432904  -1.961585  -0.059484  -2.959717   1.732666  -0.534188   1.384565  -2.271809   2.724668  -0.948398  -1.545715   5.281306   0.170812  11.125029  -0.092936   0.071887  -0.677772  -4.161552   0.456715  -2.197845  -5.421588   1.889594   1.329176  -8.553227   0.220952  -9.270990   0.113821   0.562188   0.791279   6.314727 -10.792137  -0.347654  -1.347203  12.294230   0.006055   0.049931 -10.258861  -0.556939   1.471795   1.503288  -0.003748   0.004900  -8.662982   0.055071  -2.127635  14.084900   0.030842   0.063697 -12.189592   0.220024   0.487945   1.509157   0.000599   0.007273
 -2.373191   0.923704   3.953760   3.600434   3.873638   1.362425  -2.034557  -1.426131  -0.524209   4.387980  -2.564458  -0.133231  -3.541863   2.105314  -0.608965   1.694228  -2.627550   3.876013  -1.122276  -1.792963   6.820429   0.200953  13.507722  -0.106397   0.110105  -0.416426  -4.263580   0.478664  -2.972898  -7.345561   2.289089   1.325520 -10.936472   0.263427 -11.310422   0.131168   0.737267   0.344706   6.590724 -13.643380  -0.382773  -1.602867  14.827450   0.005640   0.053056 -12.411647  -0.705776   1.768957   1.776915  -0.004125   0.005139 -10.364510   0.131354  -2.661750  17.684563   0.038256   0.069656 -14.749147   0.254234   0.598860   1.771259   0.000639   0.007525
 -2.372918   0.921516   3.949123   4.126122   4.556723   1.607093  -2.090569  -1.833141  -0.676027   5.324596  -3.177124  -0.224551  -4.074696   2.453185  -0.674568   1.986784  -2.926692   5.056404  -1.273920  -2.010714   8.335488   0.220932  15.737655  -0.114296   0.148739  -0.129173  -4.175599   0.454324  -3.766276  -9.281900   2.655305   1.251975 -13.258860   0.294728 -13.232199   0.143417   0.915274  -0.186709   6.626825 -16.469661  -0.405238  -1.813886  17.129460   0.004438   0.052922 -14.422646  -0.854736   2.043095   2.020622  -0.004364   0.005049 -11.861891   0.216131  -3.164505  21.306446   0.044296   0.071337 -17.137615   0.281813   0.706371   2.010201   0.000634   0.007384
 -2.372676   0.917937   3.943867   4.827059   4.850563   1.639204  -2.166154  -2.091260  -0.626488   6.171767  -3.771100  -0.207368  -5.059327   2.603461  -0.679394   2.164560  -2.851928   5.989498  -1.711499  -2.310369   9.331773   0.233811  18.455441  -0.118791   0.081431  -0.389295  -3.549979   0.282298  -4.486190 -10.635341   3.117520   1.022494 -15.661524   0.304988 -14.981220   0.151979   0.962229  -0.649179   5.954233 -19.975925  -0.500486  -1.786964  20.700651   0.000791   0.045710 -17.246700  -1.182957   2.362307   2.481627  -0.005737   0.003410 -13.537411   0.591019  -3.354337  24.778609   0.047480   0.069696 -19.354813   0.148087   0.507399   2.212700   0.001074   0.006635
 -2.372349   0.913210   3.938825   5.454335   5.042838   1.627430  -2.181076  -2.346630  -0.535046   6.971299  -4.317083  -0.146994  -6.003517   2.730476  -0.665099   2.296719  -2.658994   6.681094  -2.142698  -2.502306  10.121818   0.232747  21.040996  -0.119165   0.029497  -0.427383  -3.136977   0.079105  -5.235380 -11.759633   3.523965   0.738024 -17.805287   0.303076 -16.634926   0.156312   1.011726  -1.157672   5.318633 -23.360429  -0.616927  -1.727170  24.357280  -0.002798   0.037221 -19.884033  -1.507861   2.647620   2.852048  -0.006251   0.001915 -15.071381   0.936699  -3.469854  28.009971   0.048316   0.064004 -21.423650   0.029064   0.318899   2.406990   0.001377   0.005830
 -2.371947   0.907445   3.934158   6.018671   5.184115   1.606626  -2.176201  -2.591390  -0.432604   7.720731  -4.823903  -0.072180  -6.882937   2.846369  -0.644964   2.399998  -2.422322   7.209046  -2.558761  -2.641816  10.770758   0.223317  23.475486  -0.116055  -0.008025  -0.334587  -2.918565  -0.148929  -5.979226 -12.714436   3.878536   0.426270 -19.727301   0.293427 -18.195183   0.156487   1.068643  -1.721978   4.844143 -26.568917  -0.732142  -1.672863  28.005144  -0.005945   0.029610 -22.344353  -1.823916   2.900870   3.189983  -0.006390   0.000699 -16.479760   1.255690  -3.556160  31.023851   0.047561   0.056942 -23.355133  -0.075786   0.140537   2.585886   0.001557   0.005055
